<?xml version="1.0" encoding="UTF-8"?>
<svg width="140px" height="52px" viewBox="0 0 140 52" version="1.1" xmlns="http://www.w3.org/2000/svg" xmlns:xlink="http://www.w3.org/1999/xlink">
    <title>Icon library/1 - Logo/Baby &amp; me Logo/color</title>
    <g id="Icon-library/1---Logo/Baby-&amp;-me-Logo/color" stroke="none" stroke-width="1" fill="none" fill-rule="evenodd">
        <g id="Baby-and-me-logo---color" transform="translate(-0.000075, 2.667962)">
            <path d="M133.006575,27.514845 C134.928075,27.514845 136.074825,28.8611074 136.303575,30.6658631 L129.738075,30.6658631 C129.938325,28.9187936 131.171325,27.514845 133.006575,27.514845 L133.006575,27.514845 Z M138.396825,34.7331186 C137.307075,34.7331186 135.844575,36.3947824 133.723575,36.3947824 C131.802825,36.3947824 130.110825,35.4493271 129.823575,33.4153248 L138.626325,33.4153248 C139.888575,33.4153248 140.432325,32.8137396 140.432325,31.5828497 C140.432325,28.145648 137.479575,24.0783925 133.006575,24.0783925 C128.647575,24.0783925 125.608575,27.8879328 125.608575,32.0690625 C125.608575,36.6232799 128.706075,40.0035446 133.350075,40.0035446 C136.419075,40.0035446 140.088825,38.2841945 140.088825,36.5086565 C140.088825,35.6208876 139.285575,34.7331186 138.396825,34.7331186 L138.396825,34.7331186 Z M101.561325,26.5753832 C101.561325,25.2006523 102.421575,24.2844148 103.626075,24.2844148 C104.687325,24.2844148 105.375075,24.8567823 105.519075,25.8307061 C106.521825,24.7429081 107.840325,24.1121052 109.361325,24.1121052 C111.081075,24.1121052 112.543575,24.8283138 113.633325,26.2030446 C114.780075,24.8852508 116.586075,24.1121052 117.990825,24.1121052 C121.346325,24.1121052 123.640575,26.0599528 123.640575,29.6687149 L123.640575,37.5739793 C123.640575,38.9487102 122.779575,39.8649477 121.575825,39.8649477 C120.371325,39.8649477 119.511075,38.9487102 119.511075,37.5739793 L119.511075,30.3841743 C119.511075,28.7232597 118.593075,27.549307 117.102075,27.549307 C115.583325,27.549307 114.665325,28.7232597 114.665325,30.3841743 L114.665325,37.5739793 C114.665325,38.9487102 113.805075,39.8649477 112.600575,39.8649477 C111.396825,39.8649477 110.536575,38.9487102 110.536575,37.5739793 L110.536575,30.3841743 C110.536575,28.7232597 109.618575,27.549307 108.127575,27.549307 C106.436325,27.549307 105.690825,28.7232597 105.690825,30.3841743 L105.690825,37.5739793 C105.690825,38.9487102 104.830575,39.8649477 103.626075,39.8649477 C102.421575,39.8649477 101.561325,38.9487102 101.561325,37.5739793 L101.561325,26.5753832 Z M45.1148254,7.73595148 C45.2355754,6.60020652 46.1055754,5.75139449 47.4263254,5.75139449 C48.7215754,5.75139449 49.6163254,6.60020652 49.7378254,7.73595148 L45.1148254,7.73595148 Z M47.4165754,3.69266946 C44.2110754,3.69266946 42.4065754,6.19265688 42.4065754,8.834987 C42.4065754,11.6511251 44.3408254,14.1263898 47.4353254,14.1263898 C48.9803254,14.1263898 50.4945754,13.5457814 51.3638254,12.5194156 C51.7425754,12.0766548 52.0493254,11.4570895 52.0493254,11.0802559 C52.0493254,10.9498999 52.0193254,10.8397716 51.9458254,10.7558644 C51.8730754,10.6637162 51.7620754,10.6090266 51.5678254,10.6090266 L50.0798254,10.6090266 C49.7843254,10.6090266 49.5810754,10.7199041 49.4318254,10.9409099 C48.9975754,11.5777062 48.3683254,11.9088403 47.4465754,11.9088403 C46.0583254,11.9088403 45.1628254,10.8570026 45.0983254,9.70327751 L51.5490754,9.70327751 C51.8370754,9.70327751 52.0395754,9.6388487 52.1768254,9.49950269 C52.3358254,9.35266495 52.4093254,9.13990006 52.4093254,8.74283883 C52.4093254,7.533675 52.0298254,6.27731333 51.2370754,5.31687465 C50.4218254,4.34819508 49.1648254,3.69266946 47.4165754,3.69266946 L47.4165754,3.69266946 Z M51.4935754,2.27898164 C51.6885754,2.27898164 51.8370754,2.22429207 51.9458254,2.13289307 C52.0680754,2.02051725 52.1235754,1.87367951 52.1235754,1.65117539 L52.1235754,0.793373292 C52.1235754,0.460740864 52.0583254,0.293675477 51.9458254,0.176055452 C51.8453254,0.0629304594 51.6788254,2.48689958e-14 51.4935754,2.48689958e-14 C51.3465754,2.48689958e-14 51.1980754,0.0172309591 50.9483254,0.0449503282 L43.5728254,0.773894817 C43.3605754,0.793373292 43.2578254,0.857802096 43.1843254,0.941709375 C43.0995754,1.0323592 43.0635754,1.15297592 43.0635754,1.31854296 L43.0635754,1.79951147 C43.0635754,1.98455699 43.0995754,2.06621675 43.1655754,2.14038479 C43.2480754,2.23403131 43.3688254,2.27898164 43.5353254,2.27898164 L51.4935754,2.27898164 Z M15.1395754,7.73595148 C15.2618254,6.60020652 16.1288254,5.75139449 17.4510754,5.75139449 C18.7440754,5.75139449 19.6418254,6.60020652 19.7625754,7.73595148 L15.1395754,7.73595148 Z M38.7758254,13.1195024 C38.7758254,13.3584884 38.8500754,13.5345438 38.9595754,13.6723915 C39.0975754,13.8394569 39.2940754,13.9420935 39.5790754,13.9420935 L40.6785754,13.9420935 C40.9665754,13.9420935 41.1600754,13.8394569 41.2995754,13.6723915 C41.4090754,13.5345438 41.4848254,13.3584884 41.4848254,13.1195024 L41.4848254,1.0323592 C41.4848254,0.793373292 41.4090754,0.618067012 41.2995754,0.479470167 C41.1600754,0.312404781 40.9665754,0.212015715 40.6785754,0.212015715 L39.5790754,0.212015715 C39.2940754,0.212015715 39.0975754,0.312404781 38.9595754,0.479470167 C38.8500754,0.618067012 38.7758254,0.793373292 38.7758254,1.0323592 L38.7758254,13.1195024 Z M33.1193254,4.04328202 L32.6010754,4.04328202 C32.4060754,4.04328202 32.2575754,4.09797158 32.1473254,4.19086893 C32.0265754,4.30174641 31.9718254,4.44933332 31.9718254,4.6703391 L31.9718254,5.30863376 C31.9718254,5.52963954 32.0265754,5.67797562 32.1473254,5.78810392 C32.2575754,5.88100127 32.4060754,5.93569084 32.6010754,5.93569084 L33.1193254,5.93569084 L33.1193254,10.5430995 C33.1193254,11.7237948 33.4410754,12.4639768 34.0425754,13.0543245 C34.5960754,13.600471 35.3168254,13.9420935 36.5745754,13.9420935 L37.3620754,13.9420935 C37.5540754,13.9420935 37.7033254,13.8859055 37.8135754,13.7945065 C37.9335754,13.6813816 38.0093254,13.5345438 38.0093254,13.3120397 L38.0093254,12.5104255 C38.0093254,12.2879214 37.9335754,12.1403345 37.8135754,12.029457 C37.7033254,11.938058 37.5540754,11.8826193 37.3620754,11.8826193 L37.2503254,11.8826193 C36.7500754,11.8826193 36.4095754,11.7522633 36.1778254,11.5312575 C35.9010754,11.2727931 35.7623254,10.8757319 35.7623254,10.3595523 L35.7623254,5.93569084 L37.4430754,5.93569084 C37.6380754,5.93569084 37.7865754,5.88100127 37.8975754,5.78810392 C38.0190754,5.67797562 38.0738254,5.52963954 38.0738254,5.30863376 L38.0738254,4.6703391 C38.0738254,4.44933332 38.0190754,4.30174641 37.8975754,4.19086893 C37.7865754,4.09797158 37.6380754,4.04328202 37.4430754,4.04328202 L35.7720754,4.04328202 L35.7720754,1.0323592 C35.7720754,0.793373292 35.6978254,0.618067012 35.5860754,0.477971823 C35.4473254,0.312404781 35.2538254,0.212015715 34.9665754,0.212015715 L33.9233254,0.212015715 C33.6360754,0.212015715 33.4410754,0.312404781 33.3038254,0.477971823 C33.1920754,0.618067012 33.1193254,0.793373292 33.1193254,1.0323592 L33.1193254,4.04328202 Z M27.3600754,3.69266946 C24.8258254,3.69266946 23.1638254,4.89434157 23.1638254,6.81297141 C23.1638254,7.49621639 23.4128254,8.05060378 23.8193254,8.48512361 C24.2910754,8.99156398 24.9668254,9.34292571 25.9455754,9.5931492 L28.0605754,10.1280581 C28.6440754,10.275645 29.1630754,10.4509513 29.1630754,10.9573917 C29.1630754,11.7425241 28.3313254,12.012226 27.4433254,12.012226 C27.0083254,12.012226 26.5553254,11.9275696 26.1855754,11.7425241 C25.9253254,11.6151648 25.7040754,11.4301193 25.5488254,11.1798958 C25.4093254,10.9671309 25.3635754,10.8105539 25.1513254,10.6914356 C25.0223254,10.6172675 24.8655754,10.6090266 24.6503254,10.6090266 L23.5065754,10.6090266 C23.2560754,10.6090266 23.1353254,10.6809471 23.0528254,10.7828346 C22.9688254,10.884722 22.9410754,11.0315597 22.9410754,11.1798958 C22.9410754,11.5484885 23.0708254,12.012226 23.3768254,12.4265182 C24.0780754,13.3689768 25.5488254,14.1263898 27.4245754,14.1263898 C29.2725754,14.1263898 31.8330754,13.3584884 31.8330754,10.884722 C31.8330754,10.2479257 31.6470754,9.70327751 31.3065754,9.25826926 C30.8723254,8.69713933 30.2520754,8.30906816 29.1998254,8.04086454 L27.0998254,7.50520646 C26.2313254,7.28420068 25.8248254,7.1276237 25.8248254,6.59196563 C25.8248254,6.07503685 26.2860754,5.65999549 27.3600754,5.65999549 C27.9893254,5.65999549 28.5608254,5.79784316 28.9313254,6.18366681 C29.2358254,6.50805835 29.1788254,6.67362539 29.4210754,6.80323217 C29.5695754,6.87814938 29.7360754,6.87814938 29.9940754,6.87814938 L31.0388254,6.87814938 C31.2053254,6.87814938 31.3260754,6.85043001 31.4168254,6.7485426 C31.4910754,6.66613367 31.5390754,6.53727606 31.5390754,6.323762 C31.5390754,5.84279349 31.2240754,5.22547565 30.6690754,4.75499555 C29.9295754,4.11745006 28.7663254,3.69266946 27.3600754,3.69266946 L27.3600754,3.69266946 Z M17.4428254,3.69266946 C14.2343254,3.69266946 12.4305754,6.19265688 12.4305754,8.834987 C12.4305754,11.6511251 14.3648254,14.1263898 17.4600754,14.1263898 C19.0043254,14.1263898 20.5200754,13.5457814 21.3885754,12.5194156 C21.7680754,12.0766548 22.0725754,11.4570895 22.0725754,11.0802559 C22.0725754,10.9498999 22.0440754,10.8397716 21.9713254,10.7558644 C21.8970754,10.6637162 21.7868254,10.6090266 21.5918254,10.6090266 L20.1038254,10.6090266 C19.8075754,10.6090266 19.6050754,10.7199041 19.4565754,10.9409099 C19.0223254,11.5777062 18.3938254,11.9088403 17.4690754,11.9088403 C16.0845754,11.9088403 15.1860754,10.8570026 15.1215754,9.70327751 L21.5558254,9.70327751 C21.8415754,9.70327751 22.0440754,9.6388487 22.1835754,9.49950269 C22.3403254,9.35266495 22.4138254,9.13990006 22.4138254,8.74283883 C22.4138254,7.533675 22.0358254,6.27731333 21.2408254,5.31687465 C20.4278254,4.34819508 19.1895754,3.69266946 17.4428254,3.69266946 L17.4428254,3.69266946 Z M9.01132545,0.516179602 C8.88232545,0.672756578 8.80807545,0.848062858 8.80807545,1.15297592 L8.80807545,9.53696129 L8.76307545,9.53696129 C8.76307545,9.53696129 4.16857545,1.35675074 3.94582545,0.977669638 C3.78907545,0.709466013 3.61507545,0.52591884 3.38257545,0.387321994 C3.15232545,0.256966043 2.91082545,0.176055452 2.44957545,0.176055452 L0.933075447,0.176055452 C0.582075447,0.176055452 0.360825447,0.293675477 0.201825447,0.477971823 C0.0743254473,0.636047144 7.54472756e-05,0.811353423 7.54472756e-05,1.11551731 L7.54472756e-05,12.9988857 C7.54472756e-05,13.3037988 0.0743254473,13.4798542 0.201825447,13.6364312 C0.360825447,13.8214767 0.582075447,13.9420935 0.933075447,13.9420935 L1.79107545,13.9420935 C2.14432545,13.9420935 2.36632545,13.8214767 2.52307545,13.6364312 C2.65207545,13.4798542 2.72707545,13.3037988 2.72707545,12.9988857 L2.72707545,4.41337305 L2.77282545,4.41337305 C2.77282545,4.41337305 7.54132545,12.8505497 7.73632545,13.1652019 C8.00407545,13.609461 8.45782545,13.9420935 9.10507545,13.9420935 L10.5743254,13.9420935 C10.9260754,13.9420935 11.1473254,13.8214767 11.3033254,13.6364312 C11.4330754,13.4798542 11.5073254,13.3037988 11.5073254,12.9988857 L11.5073254,2.27898164 L30.8175754,2.27898164 C31.0095754,2.27898164 31.1580754,2.22429207 31.2698254,2.13289307 C31.3905754,2.02051725 31.4453254,1.87367951 31.4453254,1.65117539 L31.4453254,0.839072793 C31.4453254,0.618067012 31.3905754,0.468981757 31.2698254,0.360351798 C31.1580754,0.26670528 31.0095754,0.212015715 30.8175754,0.212015715 L9.74107545,0.212015715 C9.39232545,0.212015715 9.16957545,0.331883256 9.01132545,0.516179602 L9.01132545,0.516179602 Z M77.7413254,10.0973421 C80.4000754,10.0973421 81.7770754,12.2070108 81.7770754,14.0612118 C81.7770754,15.6831695 80.2350754,17.1815138 79.8788254,17.5763275 C79.4903254,18.009349 78.2925754,19.3923207 78.0045754,19.6844979 C77.7720754,19.9137446 77.5448254,19.6987321 77.4353254,19.5968447 C77.2253254,19.3998125 77.0138254,19.2042785 76.8023254,19.0087446 C75.8918254,18.1674243 74.9513254,17.2983846 74.1638254,16.3364476 C73.6005754,15.6479584 73.3125754,14.8740636 73.3125754,14.0612118 C73.3125754,12.8198336 74.1495754,10.0973421 77.7413254,10.0973421 L77.7413254,10.0973421 Z M97.6598254,36.0718892 C97.1363254,35.4373404 96.4733254,34.9136691 95.8320754,34.4064795 L95.6678254,34.2761236 C94.7640754,33.5591658 94.0598254,33.0302503 93.3158254,32.4691204 C92.8073254,32.0877918 92.2800754,31.6907305 91.6568254,31.209762 L88.7820754,28.8970676 C88.7820754,28.8970676 88.4813254,29.7361404 86.4218254,31.9334623 C83.8890754,34.6357262 80.7450754,35.8441409 77.7645754,35.7976922 C75.2640754,35.7624811 73.0170754,34.7226302 71.4360754,32.8691783 C69.9308254,31.1048779 69.1823254,28.5037523 69.5295754,26.2434999 C69.8378254,24.241712 70.9530754,22.5703089 72.7583254,21.4053463 L78.3240754,25.8464387 C78.9983254,26.3071796 79.6328254,26.5798782 80.1698254,26.6383136 C81.4778254,26.7769105 82.5315754,25.5812318 83.2650754,24.328616 L83.0430754,24.1473163 L81.0015754,22.4819066 C86.1615754,17.8130659 87.3968254,13.0033808 84.4785754,8.92488766 C82.0673254,5.55511139 76.8053254,4.70704853 72.7500754,7.03247884 C70.0080754,8.60499116 68.7248254,11.3259844 68.9588254,14.3548873 C69.0555754,15.620239 69.4185754,16.6975486 70.0508254,18.1554375 L68.6783254,19.40206 C65.8665754,21.9522419 64.4378254,26.1558468 65.0370754,30.1114757 C65.6220754,33.9682138 67.9448254,37.0255853 71.5778254,38.7202127 C73.6725754,39.6971332 75.7583254,40.1848442 77.8245754,40.1848442 C80.4893254,40.1848442 83.1218254,39.3734908 85.6988254,37.7522823 C86.6168254,37.1746706 87.4463254,36.4869305 88.3238254,35.7587352 C88.6883254,35.4560697 89.0648254,35.1436649 89.4518254,34.8365043 C89.8710754,35.2043479 90.2355754,35.5302377 90.5850754,35.8433917 C91.2810754,36.4674521 91.9380754,37.0563014 92.8635754,37.8159619 C93.5513254,38.3800885 94.3748254,39.0093931 95.2733254,39.4012102 C96.3060754,39.8522118 97.3343254,39.5959949 97.9575754,38.7336978 C98.5283254,37.9418228 98.4233254,36.9963676 97.6598254,36.0718892 L97.6598254,36.0718892 Z" id="Fill-1" fill="#26358C"></path>
            <path d="M88.0001932,24.0919165 C87.521103,23.8285718 86.9695834,23.7769503 86.4482427,23.9460296 C85.9261476,24.1143607 85.5111876,24.4802003 85.2803189,24.9732234 C85.1460228,25.2597604 84.9830566,25.6016596 84.9189265,25.7026583 C84.0097868,27.1413282 82.8976939,28.0338572 81.7026091,28.2829873 C81.3615874,28.3540604 81.0054763,28.3742601 80.6440838,28.3413421 C80.5263861,28.3308681 80.4026525,28.3308681 80.2774101,28.3428383 C79.9371429,28.286728 79.5908399,28.1954551 79.2452913,28.070516 C78.3565224,27.7495647 77.3666542,28.0967008 76.8935998,28.8957125 L76.8762469,28.9256381 C76.5842659,29.4201575 76.5291894,30.0119349 76.7245979,30.5505945 C76.9200063,31.0914984 77.3477924,31.5171891 77.8955396,31.7154458 C78.9533104,32.0992407 79.9914649,32.2915123 81.0017039,32.2915123 C81.7086449,32.2915123 82.4020053,32.1972468 83.0780129,32.008716 C84.5613064,31.5942474 85.8620174,30.7495992 86.9416679,29.498712 L86.9914631,29.4074391 C87.4388655,28.9174085 87.8575978,28.3645343 88.2363432,27.7645274 C88.352532,27.5804854 88.5388867,27.2161421 88.823323,26.6176314 C89.2609172,25.6944288 88.8995247,24.5849397 88.0001932,24.0919165 L88.0001932,24.0919165 Z M88.1239267,18.0641663 C86.6972187,18.0641663 85.5368396,19.214803 85.5368396,20.6295325 C85.5368396,22.044262 86.6972187,23.1948987 88.1239267,23.1948987 C89.5506347,23.1948987 90.7110138,22.044262 90.7110138,20.6295325 C90.7110138,19.214803 89.5506347,18.0641663 88.1239267,18.0641663 L88.1239267,18.0641663 Z M48.5133526,26.9692564 C48.3979183,26.6550383 48.3119084,26.3400721 48.3119084,25.9113889 C48.3119084,24.8812024 49.4074028,24.1383011 50.2727831,24.1383011 C51.2822676,24.1383011 52.0035436,24.6814495 52.3490921,25.5964226 L55.2047715,33.3478835 L58.2626495,25.5964226 C58.6089525,24.6814495 59.3302285,24.1383011 60.339713,24.1383011 C61.2043388,24.1383011 62.3005877,24.8812024 62.3005877,25.9113889 C62.3005877,26.3400721 62.2424933,26.6550383 62.0991435,26.9692564 L55.1474315,44.1308008 C54.801883,44.9896636 54.166617,45.7617423 53.1858024,45.7617423 C51.7726749,45.7617423 51.022729,44.8744503 51.022729,43.9879064 C51.022729,43.5876524 51.1381633,43.158221 51.2822676,42.7863963 L53.099038,38.3244995 L48.5133526,26.9692564 Z M40.4088063,36.0935511 C42.5726341,36.0935511 43.6394586,33.8626027 43.6394586,31.9458724 C43.6394586,30.0014609 42.5726341,27.7413351 40.4088063,27.7413351 C38.188393,27.7413351 37.1502384,29.8009599 37.1502384,31.802978 C37.1502384,33.804996 38.1302986,36.0935511 40.4088063,36.0935511 L40.4088063,36.0935511 Z M32.9961115,19.7901213 C32.9961115,18.4172875 33.8607372,17.5015663 35.073175,17.5015663 C36.2841037,17.5015663 37.1502384,18.4172875 37.1502384,19.7901213 L37.1502384,25.3959216 C38.2464874,24.451771 39.6588604,23.9662293 41.1014123,23.9662293 C45.5724178,23.9662293 47.7928311,28.1131599 47.7928311,32.1179442 C47.7928311,36.0082633 45.1393505,39.8694051 40.9565535,39.8694051 C39.543426,39.8694051 37.9288543,39.2402208 37.1502384,37.981104 C36.8906998,39.0688971 36.2267638,39.6973333 35.073175,39.6973333 C33.8607372,39.6973333 32.9961115,38.7823601 32.9961115,37.4095264 L32.9961115,19.7901213 Z M23.2769934,36.0935511 C25.4400668,36.0935511 26.4782213,33.9202093 26.4782213,31.9458724 C26.4782213,29.9722835 25.4687368,27.7413351 23.2769934,27.7413351 C20.9977312,27.7413351 19.9874922,29.9722835 19.9874922,31.9458724 C19.9874922,33.9202093 21.0264012,36.0935511 23.2769934,36.0935511 L23.2769934,36.0935511 Z M30.6323483,37.0092724 C30.6323483,38.0671399 30.6323483,39.6973333 28.6420492,39.6973333 C27.4303659,39.6973333 26.9392042,39.0389716 26.6517501,37.9526748 C25.5841711,39.2110434 24.286478,39.8694051 22.6998218,39.8694051 C18.8052334,39.8694051 15.8348742,36.579841 15.8348742,31.9458724 C15.8348742,27.4271171 18.8919978,23.9662293 22.6998218,23.9662293 C24.229138,23.9662293 25.7282754,24.5669843 26.6517501,25.8537822 C26.7671844,24.8535213 27.6318102,24.1383011 28.6420492,24.1383011 C30.6323483,24.1383011 30.6323483,25.7677463 30.6323483,26.8256139 L30.6323483,37.0092724 Z M4.32690125,35.7501556 L7.73032785,35.7501556 C9.28831409,35.7501556 10.4419029,34.8636117 10.4419029,33.2618476 C10.4419029,31.9181913 9.40374842,31.00247 7.38402485,31.00247 L4.32690125,31.00247 L4.32690125,35.7501556 Z M4.32690125,27.226616 L6.576739,27.226616 C7.99062095,27.226616 8.91334113,26.3969306 8.91334113,24.9672383 C8.91334113,23.6228338 7.84651665,22.936791 6.576739,22.936791 L4.32690125,22.936791 L4.32690125,27.226616 Z M-2.84217094e-13,21.3058495 C-2.84217094e-13,19.9330157 0.952144617,19.1601889 2.27926219,19.1601889 L7.81784669,19.1601889 C10.8168759,19.1601889 13.2394879,21.1629551 13.2394879,24.1951596 C13.2394879,26.1964296 12.4035321,27.5408341 10.5565828,28.3996968 L10.5565828,28.4565554 C13.0093737,28.7999508 14.9423329,30.8303982 14.9423329,33.3187062 C14.9423329,37.3526679 12.2300034,39.5260096 8.25015957,39.5260096 L2.30793216,39.5260096 C0.980814581,39.5260096 -2.84217094e-13,38.6963242 -2.84217094e-13,37.3526679 L-2.84217094e-13,21.3058495 Z" id="Fill-4" fill="#EF7A23"></path>
        </g>
    </g>
</svg>